# xmcd
#
# Track frame offsets:
# 150
# 31139
# 73025
# 102692
# 142678
# 177246
# 229763
#
# Disc length: 3741 seconds
#
#
# Revision: 0
# Processed by: cddbd v1.5PL3 Copyright (c) Steve Scherf et al.
# Submitted via: FreeRIP 2.70 
#
DISCID=580e9b07
DTITLE=Reflection of Nature/Serenity - Reflection of Nature/Serenity
DYEAR=1900
DGENRE=
TTITLE0=Hymn to the sea
TTITLE1=Dreaming
TTITLE2=Stargazing
TTITLE3=Serenity
TTITLE4=Fireflies
TTITLE5=Romance
TTITLE6=Meditation
EXTD=
EXTT0=
EXTT1=
EXTT2=
EXTT3=
EXTT4=
EXTT5=
EXTT6=
PLAYORDER=
